<svg xmlns="http://www.w3.org/2000/svg" width="52.19" height="66.296" viewBox="0 0 52.19 66.296">
  <defs>
    <style>
      .cls-1 {
        fill: #fff;
        opacity: 0.8;
      }
    </style>
  </defs>
  <path id="Path_54" data-name="Path 54" class="cls-1" d="M83.69,87.859A4.937,4.937,0,0,1,78.764,92.8H36.427A4.939,4.939,0,0,1,31.5,87.859a26.1,26.1,0,0,1,52.19,0ZM57.6,68.817A19.045,19.045,0,0,0,38.669,85.743H76.521A19.045,19.045,0,0,0,57.6,68.817Zm0-9.874A16.221,16.221,0,1,1,73.817,42.721,16.221,16.221,0,0,1,57.6,58.943Zm0-7.053a9.169,9.169,0,1,0-9.169-9.169A9.169,9.169,0,0,0,57.6,51.89Z" transform="translate(-31.5 -26.5)"/>
</svg>
