<svg xmlns="http://www.w3.org/2000/svg" width="62.712" height="56.628" viewBox="0 0 62.712 56.628">
  <defs>
    <style>
      .cls-1 {
        fill: #fff;
        opacity: 0.8;
      }
    </style>
  </defs>
  <path id="Path_46" data-name="Path 46" class="cls-1" d="M57.672,66.151a5.03,5.03,0,0,0,2.968,1,5.081,5.081,0,0,0,3.118-1.12,132.247,132.247,0,0,0,17.6-15.153,48.942,48.942,0,0,0,8.359-11.126,17.218,17.218,0,0,0,2.258-8.367,22.037,22.037,0,0,0-7.87-16.773,17.256,17.256,0,0,0-11.166-4.074,17.579,17.579,0,0,0-12.3,5.032A17.351,17.351,0,0,0,45.3,10.8,18.406,18.406,0,0,0,32.636,19.88c-4.154,7-4.463,13.8-.928,20.2a48.561,48.561,0,0,0,6.868,9.355A128.136,128.136,0,0,0,57.672,66.151ZM40.289,24.665a9.427,9.427,0,0,1,6.619-4.81,8.535,8.535,0,0,1,9.32,4.793l.452.883a4.391,4.391,0,0,0,4.025,2.45,4.474,4.474,0,0,0,3.955-2.568,11.406,11.406,0,0,1,2.061-3.083A8.928,8.928,0,0,1,78.4,21.694a12.692,12.692,0,0,1,4.624,9.9,8.2,8.2,0,0,1-1.215,3.837,39.9,39.9,0,0,1-6.843,9A118.679,118.679,0,0,1,60.634,56.991,114.3,114.3,0,0,1,45.1,43.135a39.3,39.3,0,0,1-5.594-7.58C37.615,32.123,37.857,28.764,40.289,24.665Z" transform="translate(-29.27 -10.518)"/>
</svg>
