<svg xmlns="http://www.w3.org/2000/svg" width="75.497" height="61.342" viewBox="0 0 75.497 61.342">
  <defs>
    <style>
      .cls-1 {
        fill: #fff;
        opacity: 0.8;
      }
    </style>
  </defs>
  <path id="Union_44" data-name="Union 44" class="cls-1" d="M-4540.036-2689.344v-6.7h-11.314v1.987a7.2,7.2,0,0,1-7.324,7.059h-3.7a7.2,7.2,0,0,1-7.322-7.059v-6.636a2.553,2.553,0,0,1,.041-.414,15.9,15.9,0,0,1-3.987-10.577,15.823,15.823,0,0,1,4-10.556h-1.574a2.738,2.738,0,0,1-2.789-2.687,2.741,2.741,0,0,1,2.79-2.688h5.118c4.216-8.118,13.116-12.5,26.056-12.8v-4.9a2.741,2.741,0,0,1,2.79-2.688,2.741,2.741,0,0,1,2.789,2.688v55.968a2.739,2.739,0,0,1-2.789,2.687A2.74,2.74,0,0,1-4540.036-2689.344Zm-24.083-4.713a1.717,1.717,0,0,0,1.745,1.684h3.7a1.716,1.716,0,0,0,1.744-1.684v-1.987h-1.592a14.578,14.578,0,0,1-1.712-.1,14.694,14.694,0,0,1-3.884-1.012Zm-3.944-17.626c0,5.247,3.653,9.631,8.5,10.2a8.8,8.8,0,0,0,1.042.065h18.485v-18.51h-24.111A10.44,10.44,0,0,0-4568.063-2711.684Zm7.021-13.619h21v-9.738C-4550.674-2734.777-4557.72-2731.511-4561.042-2725.3Zm29.959,33.82v-52.038a2.739,2.739,0,0,1,2.789-2.688c16.427,0,29.791,12.877,29.791,28.7s-13.364,28.7-29.791,28.7A2.739,2.739,0,0,1-4531.083-2691.482Zm5.579-4.352a36.381,36.381,0,0,0,6.371-10.294h-6.371Zm7.411-.546a24,24,0,0,0,10.917-9.748h-6A39.412,39.412,0,0,1-4518.093-2696.38Zm6.8-21.124a35.215,35.215,0,0,1-.515,6h6.888a22.43,22.43,0,0,0,.841-6,22.473,22.473,0,0,0-.83-5.961h-6.883A35.563,35.563,0,0,1-4511.3-2717.5Zm-14.208,6h7.994a29.519,29.519,0,0,0,.636-6,29.951,29.951,0,0,0-.618-5.961h-8.012Zm12.366-17.336h5.988a24.025,24.025,0,0,0-10.978-9.807A38.038,38.038,0,0,1-4513.138-2728.84Zm-12.366,0h6.408a34.373,34.373,0,0,0-6.408-10.208Zm-38.639,16.064a4.128,4.128,0,0,1,4.2-4.044,4.128,4.128,0,0,1,4.2,4.044,4.128,4.128,0,0,1-4.2,4.045A4.129,4.129,0,0,1-4564.143-2712.775Z" transform="translate(4574 2748)"/>
</svg>
