<svg xmlns="http://www.w3.org/2000/svg" width="71" height="54.224" viewBox="0 0 71 54.224">
  <defs>
    <style>
      .cls-1 {
        opacity: 0.8;
      }

      .cls-2 {
        fill: #fff;
      }
    </style>
  </defs>
  <g id="Group_252" data-name="Group 252" class="cls-1" transform="translate(-220 -765)">
    <path id="Path_47" data-name="Path 47" class="cls-2" d="M48.712,29.67a3.02,3.02,0,0,0,2.551-3.493,3.177,3.177,0,0,0-3.69-2.417C29.947,26.81,17.153,41.351,17.153,58.339a33.691,33.691,0,0,0,4.419,16.585,3.2,3.2,0,0,0,2.8,1.583,3.291,3.291,0,0,0,1.5-.357,2.922,2.922,0,0,0,1.294-4.066A27.56,27.56,0,0,1,23.5,58.339C23.5,44.253,34.1,32.2,48.712,29.67Z" transform="translate(202.847 742.717)"/>
    <path id="Path_51" data-name="Path 51" class="cls-2" d="M52.16,31.1a3.689,3.689,0,1,0,1.479-7.228l-.309-.063A3.691,3.691,0,0,0,52,31.073Z" transform="translate(214.779 741.248)"/>
    <path id="Path_1382" data-name="Path 1382" class="cls-2" d="M52.16,31.1a3.689,3.689,0,1,0,1.479-7.228l-.309-.063A3.691,3.691,0,0,0,52,31.073Z" transform="translate(225.684 747.791)"/>
    <path id="Path_1383" data-name="Path 1383" class="cls-2" d="M52.16,31.1a3.689,3.689,0,1,0,1.479-7.228l-.309-.063A3.691,3.691,0,0,0,52,31.073Z" transform="translate(234.408 760.877)"/>
    <path id="Path_48" data-name="Path 48" class="cls-2" d="M81.37,45.865a3.1,3.1,0,0,0-.058-.357c-.009-.035-.009-.071-.019-.106a2.547,2.547,0,0,0-.1-.281c-.009-.025-.012-.056-.024-.082a.215.215,0,0,0-.014-.024,2.908,2.908,0,0,0-4.425-1.344L54.814,53a8.648,8.648,0,0,0-7.042-3.663,8.821,8.821,0,1,0,8.667,9.484l22.7-9.659c.025,0,.053,0,.081-.01a2.935,2.935,0,0,0,1.9-1.694c.03-.064.06-.129.085-.195.027-.082.051-.165.075-.251a2.863,2.863,0,0,0,.078-.35c.01-.061.014-.12.019-.18a3.307,3.307,0,0,0,.014-.406C81.386,46.005,81.376,45.936,81.37,45.865Zm-33.6,15.1a2.814,2.814,0,1,1,2.775-2.813A2.8,2.8,0,0,1,47.772,60.97Z" transform="translate(199.258 743.036)"/>
    <path id="Path_1384" data-name="Path 1384" class="cls-2" d="M52.16,31.1a3.689,3.689,0,1,0,1.479-7.228l-.309-.063A3.691,3.691,0,0,0,52,31.073Z" transform="translate(234.408 776.144)"/>
    <path id="Path_1385" data-name="Path 1385" class="cls-2" d="M52.16,31.1a3.689,3.689,0,1,0,1.479-7.228l-.309-.063A3.691,3.691,0,0,0,52,31.073Z" transform="translate(225.684 787.049)"/>
  </g>
</svg>
