<?xml version="1.0" standalone="no"?>
<!DOCTYPE svg PUBLIC "-//W3C//DTD SVG 20010904//EN"
 "http://www.w3.org/TR/2001/REC-SVG-20010904/DTD/svg10.dtd">
<svg version="1.0" xmlns="http://www.w3.org/2000/svg"
 width="581.000000pt" height="145.000000pt" viewBox="0 0 581.000000 145.000000"
 preserveAspectRatio="xMidYMid meet">

<g transform="translate(0.000000,145.000000) scale(0.100000,-0.100000)"
fill="#000000" stroke="none">
<path d="M1 1103 c1 -226 4 -324 9 -281 24 205 145 375 333 468 213 106 486
87 667 -46 33 -24 60 -47 60 -51 0 -5 -12 -21 -25 -36 l-25 -28 -39 30 c-160
127 -400 147 -600 50 -128 -63 -241 -211 -272 -356 -16 -81 -7 -234 20 -302
60 -159 196 -283 356 -326 78 -21 233 -21 308 -1 72 20 108 38 173 87 l51 38
29 -31 29 -30 -41 -37 c-54 -48 -150 -94 -242 -116 -97 -24 -280 -17 -366 14
-232 82 -389 273 -416 506 -4 33 -8 -101 -9 -297 l-1 -358 2905 0 2905 0 0
725 0 725 -2905 0 -2905 0 1 -347z m1941 236 c230 -46 358 -188 358 -398 0
-145 -52 -253 -158 -328 -25 -19 -63 -39 -84 -45 -21 -6 -38 -13 -38 -14 0 -2
68 -97 150 -212 83 -115 150 -211 150 -213 0 -3 -12 -4 -27 -3 -16 1 -39 3
-53 3 -22 1 -49 33 -169 202 l-144 202 -75 -7 c-41 -3 -146 -6 -233 -6 l-159
0 -2 -197 c-3 -181 -4 -198 -20 -197 -10 1 -29 2 -43 3 l-25 1 0 239 0 240
288 3 c270 3 290 5 343 26 121 48 176 114 198 238 29 161 -42 294 -189 355
-52 22 -71 24 -345 29 l-290 5 -3 43 -3 42 260 0 c144 0 284 -5 313 -11z m614
-72 c28 -45 127 -205 218 -354 92 -150 169 -273 171 -273 2 0 101 160 221 355
l218 355 48 0 c27 0 47 -3 45 -7 -6 -12 -211 -347 -359 -587 l-128 -208 0
-208 c0 -113 -2 -209 -4 -211 -3 -3 -23 -3 -45 -1 l-41 4 0 204 0 204 -245
399 c-135 219 -245 402 -245 405 0 3 21 6 48 6 l47 0 51 -83z m1798 -522 c153
-333 276 -608 273 -612 -6 -5 -87 -7 -92 -1 -1 2 -114 249 -251 551 -137 301
-251 547 -255 547 -3 0 -118 -247 -255 -550 l-249 -550 -52 0 -52 0 78 168
c42 92 169 366 281 610 l203 442 46 0 47 0 278 -605z m1088 591 c245 -52 381
-243 338 -476 -24 -133 -101 -234 -215 -281 -32 -13 -54 -28 -51 -35 2 -6 68
-100 146 -209 78 -108 139 -199 137 -202 -10 -9 -87 -5 -100 5 -6 6 -73 97
-147 202 l-135 192 -80 -6 c-44 -3 -149 -6 -232 -6 l-153 0 0 -193 c0 -107 -2
-196 -4 -198 -3 -2 -25 -3 -50 -1 l-46 4 0 239 0 239 260 0 c274 0 331 6 417
46 133 63 196 230 147 393 -21 73 -97 150 -179 182 -57 22 -76 24 -350 29
l-290 5 -3 43 -3 42 263 0 c188 0 282 -4 330 -14z"/>
</g>
</svg>
