<svg xmlns="http://www.w3.org/2000/svg" width="218.622" height="1080" viewBox="0 0 218.622 1080">
  <defs>
    <style>
      .cls-1 {
        fill: #286ea9;
        stroke-linecap: round;
      }

      .cls-2, .cls-3 {
        stroke: none;
      }

      .cls-3 {
        fill: #707070;
      }
    </style>
  </defs>
  <g id="Path_1387" data-name="Path 1387" class="cls-1">
    <path class="cls-2" d="M 152.5701141357422 1079.5 L 66.05171203613281 1079.5 C 57.20664596557617 1079.5 48.62611389160156 1077.637817382813 40.54837799072266 1073.96533203125 C 36.66504669189453 1072.19970703125 32.9193115234375 1070.014282226563 29.41531372070313 1067.4697265625 C 25.94384574890137 1064.948608398438 22.67918014526367 1062.053344726563 19.71211242675781 1058.864013671875 C 16.7445125579834 1055.673950195313 14.0501127243042 1052.163696289063 11.7039794921875 1048.4306640625 C 9.334779739379883 1044.661376953125 7.299979686737061 1040.631469726563 5.655979633331299 1036.453369140625 C 2.234646320343018 1027.758666992188 0.4999797642230988 1018.52197265625 0.4999797642230988 1009 L 0.4999797642230988 71 C 0.4999797642230988 61.47800064086914 2.234646320343018 52.2413330078125 5.655979633331299 43.54666519165039 C 7.299979686737061 39.36840057373047 9.334779739379883 35.33866500854492 11.7039794921875 31.56933403015137 C 14.0501127243042 27.83626747131348 16.7445125579834 24.32600021362305 19.71211242675781 21.13599967956543 C 22.67918014526367 17.9466667175293 25.94384574890137 15.0511999130249 29.41531372070313 12.53026676177979 C 32.9193115234375 9.985600471496582 36.66504669189453 7.800266742706299 40.54837799072266 6.034666538238525 C 48.62611389160156 2.362133264541626 57.20664596557617 0.5 66.05171203613281 0.5 L 152.5701141357422 0.5 C 161.4151763916016 0.5 169.9957122802734 2.362133264541626 178.0734405517578 6.034666538238525 C 181.956787109375 7.800266742706299 185.7025146484375 9.985600471496582 189.2065124511719 12.53026676177979 C 192.677978515625 15.0511999130249 195.9426422119141 17.9466667175293 198.9097137451172 21.13599967956543 C 201.8773193359375 24.32600021362305 204.5717163085938 27.83626747131348 206.9178466796875 31.56933403015137 C 209.2870483398438 35.33866500854492 211.3218536376953 39.36840057373047 212.9658508300781 43.54666519165039 C 216.3871765136719 52.2413330078125 218.1218414306641 61.47800064086914 218.1218414306641 71 L 218.1218414306641 1009 C 218.1218414306641 1018.52197265625 216.3871765136719 1027.758666992188 212.9658508300781 1036.453369140625 C 211.3218536376953 1040.631469726563 209.2870483398438 1044.661376953125 206.9178466796875 1048.4306640625 C 204.5717163085938 1052.163696289063 201.8773193359375 1055.673950195313 198.9097137451172 1058.864013671875 C 195.9426422119141 1062.053344726563 192.677978515625 1064.948608398438 189.2065124511719 1067.4697265625 C 185.7025146484375 1070.014282226563 181.956787109375 1072.19970703125 178.0734405517578 1073.96533203125 C 169.9957122802734 1077.637817382813 161.4151763916016 1079.5 152.5701141357422 1079.5 Z"/>
    <path class="cls-3" d="M 66.05171203613281 1 C 57.27851867675781 1 48.767578125 2.8470458984375 40.75531005859375 6.4898681640625 C 36.90251159667969 8.2415771484375 33.18597412109375 10.4100341796875 29.70918273925781 12.934814453125 C 26.26371765136719 15.4368896484375 23.02345275878906 18.310791015625 20.0782470703125 21.4765625 C 17.13197326660156 24.6435546875 14.456787109375 28.1287841796875 12.1273193359375 31.8353271484375 C 9.774642944335938 35.5784912109375 7.753982543945313 39.5804443359375 6.121185302734375 43.729736328125 C 2.723052978515625 52.3658447265625 0.9999847412109375 61.54095458984375 0.9999847412109375 71 L 0.9999847412109375 1009 C 0.9999847412109375 1018.459045410156 2.723052978515625 1027.634155273438 6.121185302734375 1036.270263671875 C 7.753982543945313 1040.419555664063 9.774642944335938 1044.421508789063 12.1273193359375 1048.164672851563 C 14.456787109375 1051.871215820313 17.13197326660156 1055.3564453125 20.0782470703125 1058.5234375 C 23.02345275878906 1061.689208984375 26.26371765136719 1064.563110351563 29.70918273925781 1067.065185546875 C 33.18597412109375 1069.589965820313 36.90251159667969 1071.758422851563 40.75531005859375 1073.510131835938 C 48.767578125 1077.152954101563 57.27851867675781 1079 66.05171203613281 1079 L 152.5701141357422 1079 C 161.3433074951172 1079 169.854248046875 1077.152954101563 177.8665161132813 1073.510131835938 C 181.7193145751953 1071.758422851563 185.4358520507813 1069.589965820313 188.9126434326172 1067.065185546875 C 192.3581085205078 1064.563110351563 195.5983734130859 1061.689208984375 198.5435791015625 1058.5234375 C 201.4898529052734 1055.3564453125 204.1650390625 1051.871215820313 206.4945068359375 1048.164672851563 C 208.8471832275391 1044.421508789063 210.8678436279297 1040.419555664063 212.5006408691406 1036.270263671875 C 215.8987731933594 1027.634155273438 217.6218414306641 1018.459045410156 217.6218414306641 1009 L 217.6218414306641 71 C 217.6218414306641 61.54095458984375 215.8987731933594 52.3658447265625 212.5006408691406 43.729736328125 C 210.8678436279297 39.5804443359375 208.8471832275391 35.5784912109375 206.4945068359375 31.8353271484375 C 204.1650390625 28.1287841796875 201.4898529052734 24.6435546875 198.5435791015625 21.4765625 C 195.5983734130859 18.310791015625 192.3581085205078 15.4368896484375 188.9126434326172 12.934814453125 C 185.4358520507813 10.4100341796875 181.7193145751953 8.2415771484375 177.8665161132813 6.4898681640625 C 169.854248046875 2.8470458984375 161.3433074951172 1 152.5701141357422 1 L 66.05171203613281 1 M 66.05171203613281 0 L 152.5701141357422 0 C 189.0494384765625 0 218.6218414306641 31.787841796875 218.6218414306641 71 L 218.6218414306641 1009 C 218.6218414306641 1048.212158203125 189.0494384765625 1080 152.5701141357422 1080 L 66.05171203613281 1080 C 29.57237243652344 1080 -1.52587890625e-05 1048.212158203125 -1.52587890625e-05 1009 L -1.52587890625e-05 71 C -1.52587890625e-05 31.787841796875 29.57237243652344 0 66.05171203613281 0 Z"/>
  </g>
</svg>
