<svg id="Group_234" data-name="Group 234" xmlns="http://www.w3.org/2000/svg" width="75.427" height="20.195" viewBox="0 0 75.427 20.195">
  <g id="Union_26" data-name="Union 26" fill="rgba(0,122,255,0.85)">
    <path d="M19.558,16.835H11.986a4.262,4.262,0,0,1-8.218-.3H1.09a1.09,1.09,0,1,1,0-2.181H1.6a5.578,5.578,0,0,1-.951-3.1c0-.343-.011-.676-.02-1C.592,8.8.553,7.423,1.451,6.5a3.033,3.033,0,0,1,2.3-.822H5.659A9.631,9.631,0,0,1,14.765,0a9.642,9.642,0,0,1,9.106,5.682h1.354c3.142,0,6.94,2.486,6.94,5.575v1.133c0,2.178-2.97,3.419-4.337,3.875a4.261,4.261,0,0,1-8.271.57Zm1.988-1.272a2.081,2.081,0,1,0,2.083-2.083A2.084,2.084,0,0,0,21.546,15.563Zm-15.714,0A2.081,2.081,0,1,0,7.915,13.48,2.084,2.084,0,0,0,5.832,15.563Zm6.246-.912h7.385a4.261,4.261,0,0,1,8.139-.624c1.3-.506,2.379-1.222,2.379-1.638V11.257c0-1.716-2.724-3.394-4.756-3.394H14.956v5.125a1.092,1.092,0,0,1-2.184,0V7.863H3.749a1.2,1.2,0,0,0-.736.162,4.735,4.735,0,0,0-.2,2.175c.011.338.019.693.019,1.057a3.411,3.411,0,0,0,1.191,2.57,4.261,4.261,0,0,1,8.055.825Zm3.769-8.97h5.6a7.475,7.475,0,0,0-5.6-3.43Zm-7.761,0h5.578V2.257A7.612,7.612,0,0,0,8.086,5.682Zm8.765,5.712a1.092,1.092,0,1,1,0-2.184h2.763a1.092,1.092,0,0,1,0,2.184Z" stroke="none"/>
    <path d="M 23.62868118286133 19.62636184692383 C 24.59399032592773 19.62636184692383 25.52992057800293 19.27945137023926 26.26406097412109 18.6495418548584 C 26.9897403717041 18.02690315246582 27.47524070739746 17.16828155517578 27.63111114501953 16.23185157775879 L 27.6508903503418 16.11306190490723 L 27.7651309967041 16.0749626159668 C 29.02789115905762 15.65389251708984 31.96492004394531 14.45186233520508 31.96492004394531 12.38948249816895 L 31.96492004394531 11.25667190551758 C 31.96492004394531 9.885822296142578 31.17951965332031 8.541202545166016 29.75339126586914 7.470512390136719 C 28.4281005859375 6.475532054901123 26.73534965515137 5.88151216506958 25.22529029846191 5.88151216506958 L 23.8713207244873 5.88151216506958 L 23.73624038696289 5.88151216506958 L 23.685791015625 5.756202220916748 C 23.02742004394531 4.12081241607666 21.83662986755371 2.729392290115356 20.2421703338623 1.732372283935547 C 18.63898086547852 0.7298822402954102 16.74497985839844 0.2000022530555725 14.76493072509766 0.2000022530555725 C 12.78146076202393 0.2000022530555725 10.88656044006348 0.7294922471046448 9.285090446472168 1.73122227191925 C 7.692990303039551 2.727102279663086 6.503110408782959 4.118912220001221 5.844070434570313 5.756192207336426 L 5.793630599975586 5.88151216506958 L 5.65854024887085 5.88151216506958 L 3.74940037727356 5.88151216506958 C 2.798320293426514 5.88151216506958 2.093320369720459 6.130702495574951 1.593950390815735 6.643482208251953 C 0.7574003934860229 7.500502109527588 0.7930204272270203 8.832832336425781 0.8307204246520996 10.24338245391846 L 0.8309804201126099 10.25308227539063 L 0.8345404267311096 10.37855243682861 C 0.8426504135131836 10.6618824005127 0.8510304093360901 10.95485210418701 0.8510304093360901 11.25667190551758 C 0.8510304093360901 12.31583213806152 1.168060421943665 13.34964179992676 1.767850399017334 14.24635219573975 L 1.976000428199768 14.557541847229 L 1.601610422134399 14.557541847229 L 1.090370416641235 14.557541847229 C 0.599420428276062 14.557541847229 0.2000004053115845 14.95696258544922 0.2000004053115845 15.44791221618652 C 0.2000004053115845 15.93886184692383 0.599420428276062 16.33828163146973 1.090370416641235 16.33828163146973 L 3.768370389938354 16.33828163146973 L 3.926810503005981 16.33828163146973 L 3.96306037902832 16.49251174926758 C 4.169090270996094 17.36895179748535 4.671250343322754 18.16433143615723 5.377020359039307 18.73212242126465 C 6.10420036315918 19.31714248657227 6.981880187988281 19.62636184692383 7.915170192718506 19.62636184692383 C 8.797380447387695 19.62636184692383 9.637090682983398 19.34735298156738 10.34352016448975 18.81948280334473 C 11.02658081054688 18.30907249450684 11.54214000701904 17.58301162719727 11.79522037506104 16.77506256103516 L 11.83915042877197 16.63484191894531 L 11.98608016967773 16.63484191894531 L 19.55776977539063 16.63484191894531 L 19.7047004699707 16.63484191894531 L 19.74863052368164 16.77506256103516 C 20.00175094604492 17.58313179016113 20.51717948913574 18.3091926574707 21.19997024536133 18.81949234008789 C 21.90627098083496 19.34735298156738 22.7460994720459 19.62636184692383 23.62868118286133 19.62636184692383 M 23.62868118286133 13.27985191345215 C 24.88582038879395 13.27985191345215 25.90857124328613 14.30395221710205 25.90857124328613 15.56274223327637 C 25.90857124328613 16.8215217590332 24.88582038879395 17.84562301635742 23.62868118286133 17.84562301635742 C 22.36989974975586 17.84562301635742 21.34580039978027 16.8215217590332 21.34580039978027 15.56274223327637 C 21.34580039978027 14.30395221710205 22.36989974975586 13.27985191345215 23.62868118286133 13.27985191345215 M 7.915170192718506 13.27985191345215 C 9.172310829162598 13.27985191345215 10.19506072998047 14.30395221710205 10.19506072998047 15.56274223327637 C 10.19506072998047 16.8215217590332 9.172310829162598 17.84562301635742 7.915170192718506 17.84562301635742 C 6.656380176544189 17.84562301635742 5.632280349731445 16.8215217590332 5.632280349731445 15.56274223327637 C 5.632280349731445 14.30395221710205 6.656380176544189 13.27985191345215 7.915170192718506 13.27985191345215 M 7.915170192718506 11.49861240386963 C 6.316100597381592 11.49861240386963 4.85999059677124 12.44434261322021 4.205570220947266 13.90797233581543 L 4.095810413360596 14.15345191955566 L 3.892280340194702 13.97771263122559 C 3.09121036529541 13.2860221862793 2.631770372390747 12.2942419052124 2.631770372390747 11.25667190551758 C 2.631770372390747 10.93680191040039 2.625780344009399 10.60301208496094 2.612870454788208 10.2051420211792 C 2.581350326538086 9.034952163696289 2.581330299377441 8.183591842651367 2.872420310974121 7.882732391357422 C 3.055130481719971 7.70092248916626 3.450170516967773 7.662752151489258 3.74940037727356 7.662752151489258 L 12.77191066741943 7.662752151489258 L 12.97191047668457 7.662752151489258 L 12.97191047668457 7.862752437591553 L 12.97191047668457 12.98758220672607 C 12.97191047668457 13.47854232788086 13.37133026123047 13.87796211242676 13.86228084564209 13.87796211242676 C 14.35489082336426 13.87796211242676 14.75565052032471 13.47854232788086 14.75565052032471 12.98758220672607 L 14.75565052032471 7.862752437591553 L 14.75565052032471 7.662752151489258 L 14.95565032958984 7.662752151489258 L 25.22529029846191 7.662752151489258 C 26.25711059570313 7.662752151489258 27.47288131713867 8.069392204284668 28.47747039794922 8.75051212310791 C 29.56021118164063 9.484622001647949 30.18119049072266 10.3980827331543 30.18119049072266 11.25667190551758 L 30.18119049072266 12.38948249816895 C 30.18119049072266 13.05805206298828 28.60546112060547 13.85083198547363 27.67439079284668 14.21387195587158 L 27.48802947998047 14.28653240203857 L 27.41539001464844 14.10015201568604 C 27.12041091918945 13.34325218200684 26.61194038391113 12.69631195068359 25.94495964050293 12.22929191589355 C 25.26226997375488 11.75128269195557 24.46131134033203 11.49861240386963 23.62868118286133 11.49861240386963 C 22.69660949707031 11.49861240386963 21.78584098815918 11.82287216186523 21.06413078308105 12.41165256500244 C 20.35274124145508 12.99201202392578 19.85346984863281 13.80253219604492 19.65828132629395 14.69388198852539 L 19.62384986877441 14.85110187530518 L 19.46290969848633 14.85110187530518 L 12.0779504776001 14.85110187530518 L 11.91701030731201 14.85110187530518 L 11.88258075714111 14.69388198852539 C 11.68742084503174 13.80265235900879 11.18826007843018 12.99212265014648 10.47706031799316 12.41162204742432 C 9.755740165710449 11.82286262512207 8.84591007232666 11.49861240386963 7.915170192718506 11.49861240386963 M 15.64731025695801 2.025222301483154 L 15.87155055999756 2.052602291107178 C 18.34505081176758 2.354662179946899 20.49406051635742 3.673242330551147 21.62014961242676 5.5798020362854 L 21.7983512878418 5.88151216506958 L 21.44794082641602 5.88151216506958 L 15.84731006622314 5.88151216506958 L 15.64731025695801 5.88151216506958 L 15.64731025695801 5.681512355804443 L 15.64731025695801 2.251132249832153 L 15.64731025695801 2.025222301483154 M 13.86358070373535 2.029192209243774 L 13.86358070373535 2.256632328033447 L 13.86358070373535 5.681512355804443 L 13.86358070373535 5.88151216506958 L 13.6635799407959 5.88151216506958 L 8.085910797119141 5.88151216506958 L 7.73244047164917 5.88151216506958 L 7.914470195770264 5.578512191772461 C 9.04900074005127 3.690032243728638 11.18864059448242 2.374052286148071 13.63801002502441 2.058272361755371 L 13.86358070373535 2.029192209243774 M 19.61367988586426 11.19397258758545 C 20.10462951660156 11.19397258758545 20.50405120849609 10.79321193695068 20.50405120849609 10.30060195922852 C 20.50405120849609 9.809652328491211 20.10462951660156 9.410232543945313 19.61367988586426 9.410232543945313 L 16.85081100463867 9.410232543945313 C 16.35820960998535 9.410232543945313 15.95745086669922 9.809652328491211 15.95745086669922 10.30060195922852 C 15.95745086669922 10.79321193695068 16.35820960998535 11.19397258758545 16.85081100463867 11.19397258758545 L 19.61367988586426 11.19397258758545 M 23.62868118286133 19.82636260986328 C 21.71854019165039 19.82636260986328 20.09996032714844 18.56575202941895 19.55776977539063 16.83484268188477 L 11.98608016967773 16.83484268188477 C 11.44389057159424 18.56575202941895 9.824310302734375 19.82636260986328 7.915170192718506 19.82636260986328 C 5.89918041229248 19.82636260986328 4.210710525512695 18.41997146606445 3.768370389938354 16.53828239440918 L 1.090370416641235 16.53828239440918 C 0.4892703890800476 16.53828239440918 4.034423852772306e-07 16.04901313781738 4.034423852772306e-07 15.44791221618652 C 4.034423852772306e-07 14.84431266784668 0.4892703890800476 14.35754203796387 1.090370416641235 14.35754203796387 L 1.601610422134399 14.35754203796387 C 0.9975104331970215 13.4543924331665 0.651030421257019 12.38099193572998 0.651030421257019 11.25667190551758 C 0.651030421257019 10.91319179534912 0.640040397644043 10.58018207550049 0.6310604214668274 10.25866222381592 C 0.5921204090118408 8.80184268951416 0.553170382976532 7.423402309417725 1.450830459594727 6.503782272338867 C 1.990030407905579 5.95010232925415 2.739900350570679 5.681512355804443 3.74940037727356 5.681512355804443 L 5.65854024887085 5.681512355804443 C 7.031490325927734 2.270602226257324 10.63810062408447 2.258605945826275e-06 14.76493072509766 2.258605945826275e-06 C 18.88376998901367 2.258605945826275e-06 22.49937057495117 2.273602247238159 23.8713207244873 5.681512355804443 L 25.22529029846191 5.681512355804443 C 28.36759948730469 5.681512355804443 32.16492080688477 8.167292594909668 32.16492080688477 11.25667190551758 L 32.16492080688477 12.38948249816895 C 32.16492080688477 14.56722259521484 29.19536018371582 15.80887222290039 27.82839965820313 16.26469230651855 C 27.49290084838867 18.28017234802246 25.73953056335449 19.82636260986328 23.62868118286133 19.82636260986328 Z M 23.62868118286133 13.4798526763916 C 22.47940063476563 13.4798526763916 21.54580116271973 14.4134521484375 21.54580116271973 15.56274223327637 C 21.54580116271973 16.71202278137207 22.47940063476563 17.64562225341797 23.62868118286133 17.64562225341797 C 24.77497100830078 17.64562225341797 25.70857048034668 16.71202278137207 25.70857048034668 15.56274223327637 C 25.70857048034668 14.4134521484375 24.77497100830078 13.4798526763916 23.62868118286133 13.4798526763916 Z M 7.915170192718506 13.4798526763916 C 6.765890598297119 13.4798526763916 5.83228063583374 14.4134521484375 5.83228063583374 15.56274223327637 C 5.83228063583374 16.71202278137207 6.765890598297119 17.64562225341797 7.915170192718506 17.64562225341797 C 9.061460494995117 17.64562225341797 9.995059967041016 16.71202278137207 9.995059967041016 15.56274223327637 C 9.995059967041016 14.4134521484375 9.061460494995117 13.4798526763916 7.915170192718506 13.4798526763916 Z M 7.915170192718506 11.29861259460449 C 9.953120231628418 11.29861259460449 11.65857028961182 12.7359619140625 12.0779504776001 14.65110206604004 L 19.46290969848633 14.65110206604004 C 19.88228034973145 12.7359619140625 21.58773040771484 11.29861259460449 23.62868118286133 11.29861259460449 C 25.43498039245605 11.29861259460449 26.98067092895508 12.43391227722168 27.60173988342285 14.02753257751465 C 28.89879989624023 13.5217924118042 29.9811897277832 12.80586242675781 29.9811897277832 12.38948249816895 L 29.9811897277832 11.25667190551758 C 29.9811897277832 9.540242195129395 27.25726127624512 7.862752437591553 25.22529029846191 7.862752437591553 L 14.95565032958984 7.862752437591553 L 14.95565032958984 12.98758220672607 C 14.95565032958984 13.5886926651001 14.46638011932373 14.07796192169189 13.86228084564209 14.07796192169189 C 13.26118087768555 14.07796192169189 12.77191066741943 13.5886926651001 12.77191066741943 12.98758220672607 L 12.77191066741943 7.862752437591553 L 3.74940037727356 7.862752437591553 C 3.387940406799316 7.862752437591553 3.114340305328369 7.924152374267578 3.013500452041626 8.024501800537109 C 2.761870384216309 8.284612655639648 2.789830446243286 9.34703254699707 2.812800407409668 10.19975185394287 C 2.823780298233032 10.53825187683105 2.831770420074463 10.89321231842041 2.831770420074463 11.25667190551758 C 2.831770420074463 12.25768184661865 3.288090467453003 13.19178199768066 4.022990226745605 13.82633209228516 C 4.687990188598633 12.33905220031738 6.181760311126709 11.29861259460449 7.915170192718506 11.29861259460449 Z M 15.84731006622314 2.251132249832153 L 15.84731006622314 5.681512355804443 L 21.44794082641602 5.681512355804443 C 20.3515796661377 3.825282335281372 18.27169036865234 2.547192335128784 15.84731006622314 2.251132249832153 Z M 13.6635799407959 2.256632328033447 C 11.2781400680542 2.564172267913818 9.184270858764648 3.853242158889771 8.085910797119141 5.681512355804443 L 13.6635799407959 5.681512355804443 L 13.6635799407959 2.256632328033447 Z M 19.61367988586426 11.39397239685059 L 16.85081100463867 11.39397239685059 C 16.2467212677002 11.39397239685059 15.75745010375977 10.90470218658447 15.75745010375977 10.30060195922852 C 15.75745010375977 9.699501991271973 16.2467212677002 9.210232734680176 16.85081100463867 9.210232734680176 L 19.61367988586426 9.210232734680176 C 20.21478080749512 9.210232734680176 20.70405006408691 9.699501991271973 20.70405006408691 10.30060195922852 C 20.70405006408691 10.90470218658447 20.21478080749512 11.39397239685059 19.61367988586426 11.39397239685059 Z" stroke="none" fill="rgba(0,0,0,0.17)"/>
  </g>
  <g id="Union_25" data-name="Union 25" transform="translate(41.578 0.668)" fill="rgba(0,0,0,0.4)" opacity="0.234">
    <path d="M24.4,16.849a5.093,5.093,0,0,1-.071-4.478,5,5,0,0,1,3.3-2.693,5.007,5.007,0,0,1,2.42,9.717,5.1,5.1,0,0,1-1.161.133A5,5,0,0,1,24.4,16.849ZM27.067,11.5a3.52,3.52,0,1,0,3.554,0,3.628,3.628,0,0,0-1.8-.478A3.418,3.418,0,0,0,27.067,11.5ZM1.625,16.79a5.1,5.1,0,0,1-.071-4.478,4.868,4.868,0,0,1,.421-.718H.718a.743.743,0,0,1,0-1.486H3.343a.82.82,0,0,1,.22.03,4.657,4.657,0,0,1,1.292-.519,5.165,5.165,0,0,1,1.377-.133V9.051H4.756A1.5,1.5,0,0,1,3.283,7.744a.837.837,0,0,1-.02-.179V6.338a1.794,1.794,0,0,1,.673-1.7A2.957,2.957,0,0,1,5.6,4.4H15.643c.088,0,.178,0,.266,0a1.518,1.518,0,0,1,1.486,1.531v.054H20.1c.213,0,.423,0,.635-.015.057,0,.114-.01.173-.017,0,0,.137-.024.144-.024a4.524,4.524,0,0,0,.755-.217c.027-.011.151-.065.168-.074.059-.029.116-.058.173-.09.112-.062.222-.126.329-.2.052-.034.1-.069.155-.106a.5.5,0,0,0,.04-.03l.008-.006c.1-.077.188-.156.278-.241.068-.065.136-.132.2-.2a.736.736,0,0,1-.23-.355,9.02,9.02,0,0,0-1.118-2.56l-.09-.133c-.022-.025-.074-.091-.09-.108a1.608,1.608,0,0,0-.12-.121H19.972a.743.743,0,0,1,0-1.485H21.48A1.861,1.861,0,0,1,23,.954,9.618,9.618,0,0,1,24.14,3.339c.078-.152.152-.307.22-.464.019-.047.068-.167.081-.2.027-.072.053-.144.079-.216.042-.12.081-.24.118-.362s.065-.226.089-.34a.743.743,0,0,1,.716-.546,7.408,7.408,0,0,1,5.172,2.11,7.129,7.129,0,0,1,2.1,5,.748.748,0,0,1-.743.743H29.18a11.348,11.348,0,0,0-1.916.054,4.541,4.541,0,0,0-1.444.526,5.163,5.163,0,0,0-2.2,2.417,11.868,11.868,0,0,0-.385,2.333,2.96,2.96,0,0,1-.662,1.583,4.288,4.288,0,0,1-2.983,1.268c-.673.054-1.36.023-2.034.023H10.231A4.838,4.838,0,0,1,7.275,19.34a5.205,5.205,0,0,1-1.149.128A5,5,0,0,1,1.625,16.79Zm2.663-5.353a3.522,3.522,0,0,0,0,6.079,3.591,3.591,0,0,0,3.555.016,3.469,3.469,0,0,0,1.743-3,3.632,3.632,0,0,0-1.743-3.084,3.576,3.576,0,0,0-1.808-.494A3.4,3.4,0,0,0,4.288,11.437Zm3.429-1.89a.76.76,0,0,1-.029.213,5.033,5.033,0,0,1,1.524.852,5.137,5.137,0,0,1,1.86,3.924,4.976,4.976,0,0,1-.172,1.244h8.014c.172,0,.342,0,.513-.012.112-.007.223-.015.333-.029l.031,0h0c.059-.009.119-.017.177-.029a4.226,4.226,0,0,0,.768-.213l.028-.01.023-.011c.056-.027.112-.054.166-.084a2.863,2.863,0,0,0,.264-.164s.117-.1.134-.117c.045-.043.089-.088.13-.135l.024-.029.014-.021a1.876,1.876,0,0,0,.1-.165c.008-.015.08-.18.05-.095.02-.055.042-.111.058-.169s.038-.141.051-.213c.006-.031.011-.051.013-.064s0-.028,0-.048c0-.074.019-.21.021-.286,0,0,.061-.987.083-1.1a6.258,6.258,0,0,1,.437-1.472,6.568,6.568,0,0,1,2.581-2.86A5.972,5.972,0,0,1,26.784,7.7a11.013,11.013,0,0,1,2.169-.124h2.221a5.527,5.527,0,0,0-1.668-3.262A5.914,5.914,0,0,0,26,2.724c-.03.09-.061.182-.094.27a6.458,6.458,0,0,1-4.178,4.3,9.339,9.339,0,0,1-2.287.172h-2.05a1.574,1.574,0,0,1-.665,1.34,2.669,2.669,0,0,1-1.535.244H7.717Zm8.172-1.974V7.568C15.863,7.575,15.841,7.591,15.889,7.573Zm-11.137,0,.036,0-.036-.006Zm0,0h0l0,0h0Zm11.156,0h0l.02-.024A.341.341,0,0,1,15.906,7.569Zm0,0V5.885c0,.021.04.091.006,0l-.006,0a.255.255,0,0,0-.036,0H5.75c-.33,0-.665-.017-.995,0H4.749a.041.041,0,0,1,0,.01.175.175,0,0,1,0,.034V7.564H15.89c0-.009.009-.019.012-.019S15.908,7.551,15.908,7.565ZM4.711,5.893a.077.077,0,0,0,.028-.007ZM21.569,1.485h0C21.678,1.5,21.622,1.485,21.569,1.485ZM28.844,17.1a2.565,2.565,0,1,1,2.56-2.675.967.967,0,0,1,.006.109c0,.039,0,.076-.006.112A2.594,2.594,0,0,1,28.9,17.1Zm0-3.645a1.067,1.067,0,1,0,.025,0ZM6.065,17.042a2.565,2.565,0,1,1,0-5.13,2.6,2.6,0,0,1,2.56,2.456.954.954,0,0,1,.006.109.993.993,0,0,1-.006.111A2.593,2.593,0,0,1,6.12,17.043Zm0-3.645a1.047,1.047,0,1,0,.024,0Z" stroke="none"/>
    <path d="M 28.89306259155273 19.32781600952148 C 29.27135276794434 19.32781600952148 29.64674186706543 19.2848949432373 30.00894165039063 19.20022583007813 C 32.09684371948242 18.71367645263672 33.62798309326172 16.75138473510742 33.64966201782227 14.53814506530762 C 33.63604354858398 13.07921504974365 32.96918106079102 11.6834659576416 31.8658618927002 10.80455589294434 C 30.99063110351563 10.10776519775391 29.9388313293457 9.739465713500977 28.82417106628418 9.739465713500977 C 28.4419116973877 9.739465713500977 28.05677223205566 9.78415584564209 27.6793327331543 9.872315406799316 C 26.3347110748291 10.18565559387207 25.12166213989258 11.17596530914307 24.51351165771484 12.45687580108643 C 23.86955261230469 13.81145572662354 23.8947925567627 15.37973594665527 24.58270263671875 16.75945472717285 C 25.36189270019531 18.31967544555664 27.05381202697754 19.32781600952148 28.89306259155273 19.32781600952148 M 28.82316207885742 10.81703567504883 C 29.48734283447266 10.81703567504883 30.14320182800293 10.9915657043457 30.71992111206055 11.32178592681885 C 31.84546279907227 11.96680545806885 32.55202102661133 13.19746589660645 32.56386184692383 14.53701591491699 C 32.55229187011719 15.8643159866333 31.86419105529785 17.0644359588623 30.72322273254395 17.74731636047363 C 30.16905212402344 18.07911491394043 29.52592277526855 18.25449562072754 28.86317253112793 18.25449562072754 C 28.19900131225586 18.25447463989258 27.54340171813965 18.07974624633789 26.9674015045166 17.7492847442627 C 25.84353256225586 17.10566520690918 25.13733100891113 15.87487506866455 25.1244010925293 14.53734588623047 C 25.11097145080566 13.24304580688477 25.81586265563965 12.01166534423828 26.96424102783203 11.32360553741455 C 27.51914215087891 10.99220561981201 28.16194152832031 10.81703567504883 28.82316207885742 10.81703567504883 M 6.126091957092285 19.26790618896484 C 6.499131679534912 19.26790618896484 6.870952129364014 19.22656631469727 7.231142044067383 19.14504623413086 C 8.381701469421387 18.88414573669434 9.387822151184082 18.17734527587891 10.06415176391602 17.15485572814941 L 10.12346172332764 17.06519508361816 L 10.23096179962158 17.06519508361816 L 17.5570011138916 17.06519508361816 C 17.73664283752441 17.06519508361816 17.91718101501465 17.06737518310547 18.09814262390137 17.06957626342773 C 18.27850151062012 17.0717658996582 18.45928192138672 17.07395553588867 18.63997268676758 17.07395553588867 C 19.01644134521484 17.07395553588867 19.30477142333984 17.0642147064209 19.57488250732422 17.0423755645752 C 20.87729263305664 16.93724632263184 21.83491134643555 16.53425598144531 22.42090225219727 15.84485530853271 C 22.75833129882813 15.44652557373047 22.9542121887207 14.97614574432373 23.0373420715332 14.36454582214355 L 23.04083251953125 14.3389253616333 L 23.04482460021973 14.32926940917969 C 23.05153274536133 14.28745746612549 23.06313896179199 14.160719871521 23.07438278198242 14.03785514831543 C 23.12417221069336 13.49412536621094 23.21683120727539 12.48204517364502 23.43759155273438 11.97908592224121 C 23.89299201965332 10.93395519256592 24.68219184875488 10.06572532653809 25.71997261047363 9.468195915222168 C 26.18070220947266 9.203335762023926 26.64480209350586 9.03415584564209 27.22446250915527 8.91972541809082 C 27.46965217590332 8.870915412902832 27.77144241333008 8.849155426025391 28.20298194885254 8.849155426025391 C 28.37259101867676 8.849155426025391 28.54537200927734 8.852385520935059 28.71246147155762 8.85550594329834 C 28.87621116638184 8.858565330505371 29.03088188171387 8.861455917358398 29.17963218688965 8.861455917358398 L 31.97246170043945 8.861455917358398 C 32.11441040039063 8.861455917358398 32.25515365600586 8.801535606384277 32.35859298706055 8.697075843811035 C 32.46106338500977 8.593595504760742 32.51673126220703 8.459875106811523 32.51535034179688 8.319845199584961 C 32.50370025634766 6.492035388946533 31.77841186523438 4.766815662384033 30.47310256958008 3.46198558807373 C 29.18109130859375 2.170465469360352 27.34693145751953 1.422615528106689 25.43710136413574 1.410175561904907 C 25.20319175720215 1.410175561904907 24.96720123291016 1.587825536727905 24.92203140258789 1.796915531158447 C 24.8983325958252 1.909995555877686 24.86697196960449 2.020055532455444 24.8366527557373 2.126495599746704 L 24.82881164550781 2.153905630111694 C 24.78929138183594 2.284255504608154 24.74989128112793 2.405285596847534 24.70786285400391 2.525335550308228 C 24.68158149719238 2.598625421524048 24.65528106689453 2.671425580978394 24.62786102294922 2.744565486907959 C 24.61904144287109 2.767955541610718 24.59426116943359 2.829155445098877 24.57269096374512 2.882325410842896 L 24.54554176330566 2.949475526809692 L 24.54453277587891 2.951995611190796 L 24.5434627532959 2.954485416412354 C 24.47718238830566 3.107975482940674 24.40137100219727 3.268065452575684 24.31811141967773 3.430315494537354 L 24.10379219055176 3.847965478897095 L 23.95105171203613 3.404075622558594 C 23.6104621887207 2.414265632629395 23.25489234924316 1.67205548286438 22.83241271972656 1.068815469741821 C 22.4088020324707 0.4679455161094666 21.99175262451172 0.1999955326318741 21.48014259338379 0.1999955326318741 L 19.97240257263184 0.1999955326318741 C 19.61393165588379 0.1999955326318741 19.45347213745117 0.4724155366420746 19.45347213745117 0.7423955202102661 C 19.45347213745117 1.012365579605103 19.61393165588379 1.284785509109497 19.97240257263184 1.284785509109497 L 21.51010131835938 1.284785509109497 L 21.58581161499023 1.284785509109497 L 21.58613014221191 1.2850661277771 C 21.81897163391113 1.292811274528503 21.83100128173828 1.45886766910553 21.83100128173828 1.492795467376709 L 21.83050346374512 1.533509850502014 C 21.83152008056641 1.534757256507874 21.83254623413086 1.536019921302795 21.83359146118164 1.537305474281311 C 21.84754180908203 1.554465532302856 21.86133193969727 1.571535468101501 21.86994171142578 1.581325531005859 L 21.8787727355957 1.591365575790405 L 21.88619232177734 1.602495551109314 C 21.90383148193359 1.628955483436584 21.92147254943848 1.654875516891479 21.93910217285156 1.680795550346375 L 21.97668266296387 1.736245512962341 C 22.55939102172852 2.621035575866699 22.80728149414063 3.344425439834595 23.11909103393555 4.347435474395752 C 23.15292167663574 4.457065582275391 23.20765113830566 4.542575359344482 23.28642272949219 4.608865737915039 L 23.4506721496582 4.747115612030029 L 23.30115127563477 4.901175498962402 C 23.24020195007324 4.963975429534912 23.17266273498535 5.031015396118164 23.09368133544922 5.107085704803467 C 23.00613403320313 5.190256595611572 22.91195678710938 5.272141933441162 22.80585670471191 5.357338428497314 C 22.8005313873291 5.36181116104126 22.7958984375 5.365335464477539 22.79173851013184 5.368294715881348 C 22.78133201599121 5.376737594604492 22.76675224304199 5.388290882110596 22.74512481689453 5.403033256530762 C 22.69119071960449 5.442079544067383 22.63693618774414 5.478519439697266 22.58785247802734 5.511075496673584 C 22.46438217163086 5.594735622406006 22.33923149108887 5.665975570678711 22.24505233764648 5.718115329742432 C 22.18387222290039 5.752455711364746 22.12285232543945 5.782965660095215 22.06803131103516 5.810305595397949 C 22.0375919342041 5.826435565948486 21.88648223876953 5.891355514526367 21.88501167297363 5.891975402832031 L 21.88217163085938 5.893185615539551 L 21.87929153442383 5.89430570602417 C 21.63935279846191 5.98783540725708 21.3741512298584 6.064025402069092 21.09107208251953 6.120745658874512 L 21.07867240905762 6.123235702514648 L 21.0726375579834 6.123665809631348 C 21.05278968811035 6.126689434051514 20.99322700500488 6.136653423309326 20.96499252319336 6.141699314117432 L 20.95688247680664 6.144935607910156 L 20.92990112304688 6.147905349731445 C 20.8689022064209 6.154625415802002 20.80995178222656 6.160805702209473 20.75263214111328 6.16532564163208 C 20.57911109924316 6.180465698242188 20.40547180175781 6.181735515594482 20.2563419342041 6.181735515594482 L 20.17807197570801 6.181645393371582 L 20.1002025604248 6.18155574798584 L 17.39425277709961 6.18155574798584 L 17.19425201416016 6.18155574798584 L 17.19425201416016 5.981555461883545 L 17.19425201416016 5.927635669708252 C 17.19425201416016 5.197445392608643 16.64891242980957 4.637675762176514 15.89824199676514 4.596665382385254 C 15.87234210968018 4.595335483551025 15.84625148773193 4.594925403594971 15.82008171081543 4.594925403594971 C 15.79155158996582 4.594925403594971 15.76294231414795 4.595415592193604 15.73440170288086 4.595905303955078 C 15.70376205444336 4.596415519714355 15.67320156097412 4.596925735473633 15.64287185668945 4.596925735473633 L 5.603871822357178 4.596925735473633 C 5.514601707458496 4.596925735473633 5.423572063446045 4.595025539398193 5.331602096557617 4.593085289001465 C 5.240551948547363 4.591165542602539 5.148541927337646 4.589215755462646 5.056421756744385 4.589215755462646 C 4.705441951751709 4.589215755462646 4.340141773223877 4.615865707397461 4.04591178894043 4.809395313262939 C 3.507921934127808 5.161625385284424 3.463371992111206 5.733465671539307 3.463371992111206 6.338025569915771 L 3.463371992111206 7.565695762634277 C 3.463371992111206 7.609855651855469 3.468401908874512 7.654375553131104 3.47875189781189 7.701805591583252 L 3.479971885681152 7.707395553588867 L 3.480861902236938 7.713055610656738 C 3.587311983108521 8.383345603942871 4.111721992492676 8.851475715637207 4.756142139434814 8.851475715637207 L 6.231931686401367 8.851475715637207 L 6.431931972503662 8.851475715637207 L 6.431931972503662 9.051475524902344 L 6.431931972503662 9.486315727233887 L 6.431931972503662 9.69410514831543 L 6.224291801452637 9.686165809631348 C 6.161201953887939 9.683755874633789 6.097372055053711 9.682535171508789 6.034582138061523 9.682535171508789 C 5.654191970825195 9.682535171508789 5.272671699523926 9.726715087890625 4.900261878967285 9.813935279846191 C 4.47456169128418 9.91285514831543 4.0585618019104 10.07993507385254 3.663801908493042 10.3105354309082 L 3.590981960296631 10.35307598114014 L 3.509691953659058 10.33063507080078 C 3.454281806945801 10.31533527374268 3.399832010269165 10.30789566040039 3.343251943588257 10.30789566040039 L 0.7181718945503235 10.30789566040039 C 0.3602219223976135 10.30789566040039 0.2000019103288651 10.58055591583252 0.2000019103288651 10.85078525543213 C 0.2000019103288651 11.12101554870605 0.3602219223976135 11.39367580413818 0.7181718945503235 11.39367580413818 L 1.975301861763 11.39367580413818 L 2.361382007598877 11.39367580413818 L 2.138671875 11.70904541015625 C 1.982401967048645 11.93033599853516 1.846451878547668 12.16193580627441 1.73462188243866 12.39733505249023 C 1.091621875762939 13.75235557556152 1.116851925849915 15.32089519500732 1.80377185344696 16.70058631896973 C 2.582191944122314 18.26017570495605 4.278811931610107 19.26790618896484 6.126091957092285 19.26790618896484 M 6.034232139587402 10.75861549377441 C 6.702422142028809 10.75861549377441 7.36273193359375 10.93887519836426 7.943801879882813 11.27991580963135 C 9.067042350769043 11.93946552276611 9.77290153503418 13.18648529052734 9.785911560058594 14.53818511962891 C 9.773342132568359 15.85328578948975 9.084611892700195 17.03710556030273 7.943361759185791 17.70501518249512 C 7.394161701202393 18.0256462097168 6.755911827087402 18.19511604309082 6.097601890563965 18.19511604309082 C 5.425841808319092 18.19510459899902 4.765671730041504 18.02039527893066 4.188382148742676 17.68983459472656 C 3.065011978149414 17.0459156036377 2.358461856842041 15.81519508361816 2.344461917877197 14.47778511047363 C 2.33204197883606 13.18340587615967 3.037341833114624 11.95245552062988 4.185132026672363 11.26529598236084 C 4.738961696624756 10.93382549285889 5.378371715545654 10.75861549377441 6.034232139587402 10.75861549377441 M 7.516711711883545 8.849475860595703 L 7.71671199798584 8.849475860595703 L 15.18755149841309 8.849475860595703 C 15.26132202148438 8.849475860595703 15.33563232421875 8.850615501403809 15.41015148162842 8.851755142211914 C 15.48307228088379 8.852885246276855 15.55621147155762 8.854015350341797 15.62926197052002 8.854015350341797 C 16.02242279052734 8.854015350341797 16.34009170532227 8.817385673522949 16.6121711730957 8.638855934143066 C 16.98116111755371 8.395615577697754 17.15325164794922 8.041305541992188 17.18760108947754 7.454155445098877 L 17.19862174987793 7.265835762023926 L 17.38726234436035 7.265835762023926 L 19.43719100952148 7.265835762023926 L 19.60117149353027 7.265995502471924 L 19.76400184631348 7.266145706176758 C 20.4182014465332 7.266145706176758 21.05666160583496 7.253405570983887 21.6754322052002 7.099525451660156 C 24.05917167663574 6.505585670471191 25.22895240783691 4.228675365447998 25.71413230895996 2.924155473709106 C 25.7474422454834 2.83482551574707 25.77903175354004 2.741005420684814 25.8055419921875 2.66100549697876 L 25.85579109191895 2.509405612945557 L 26.01475143432617 2.524865627288818 C 27.38018226623535 2.657675504684448 28.6690616607666 3.241445541381836 29.64400100708008 4.168655395507813 C 30.58083152770996 5.059955596923828 31.19443130493164 6.260055541992188 31.37178230285645 7.547895431518555 L 31.4030818939209 7.77517557144165 L 31.17365264892578 7.77517557144165 L 28.95297241210938 7.77517557144165 C 28.8775520324707 7.77517557144165 28.80229187011719 7.774975299835205 28.72715187072754 7.77478551864624 C 28.65260124206543 7.774585723876953 28.57816123962402 7.77439546585083 28.50381278991699 7.77439546585083 C 27.96279144287109 7.77439546585083 27.38737106323242 7.783755302429199 26.82289123535156 7.895715713500977 C 26.24068260192871 8.010475158691406 25.63419151306152 8.253905296325684 25.02035140991211 8.619195938110352 C 23.92600250244141 9.271095275878906 23.03758239746094 10.25519561767578 22.51871109008789 11.39033508300781 C 22.30810165405273 11.85046577453613 22.19735145568848 12.29342555999756 22.09603118896484 12.81602573394775 C 22.08351135253906 12.88499546051025 22.0457878112793 13.41572189331055 22.01646614074707 13.89027309417725 C 22.01483345031738 13.94485473632813 22.00839996337891 14.02030754089355 22.00271224975586 14.08705520629883 C 21.99996185302734 14.1193265914917 21.99736595153809 14.14972591400146 21.99563789367676 14.17418479919434 C 21.99542999267578 14.19693851470947 21.99427604675293 14.21460819244385 21.99308204650879 14.23011589050293 L 21.99245262145996 14.23822593688965 L 21.99117279052734 14.24624538421631 C 21.9897518157959 14.25516510009766 21.98736190795898 14.2670259475708 21.98412132263184 14.28226566314697 C 21.98212242126465 14.29165554046631 21.97968101501465 14.3030252456665 21.97751235961914 14.31419563293457 C 21.96358108520508 14.39133548736572 21.94449234008789 14.46378517150879 21.92257118225098 14.54452514648438 C 21.90795135498047 14.59751510620117 21.89028167724609 14.64547538757324 21.87319183349609 14.69185543060303 L 21.86001205444336 14.72788524627686 L 21.67888259887695 14.6634521484375 L 21.67888259887695 14.83567523956299 C 21.77346229553223 14.83567523956299 21.83150100708008 14.77341556549072 21.85089111328125 14.73662567138672 C 21.84382247924805 14.75005531311035 21.82994270324707 14.78110599517822 21.81929206848145 14.80455589294434 C 21.80993270874023 14.82517528533936 21.80218124389648 14.84177589416504 21.79890251159668 14.84811592102051 C 21.76408195495605 14.91425514221191 21.72463226318359 14.97342586517334 21.68472099304199 15.03328514099121 L 21.67242240905762 15.05173587799072 L 21.66940116882324 15.05626583099365 L 21.66612243652344 15.06063556671143 C 21.65764236450195 15.07194519042969 21.64785194396973 15.08405590057373 21.63285255432129 15.10110569000244 C 21.59371185302734 15.14597511291504 21.54874229431152 15.19271564483643 21.49375152587891 15.24584579467773 C 21.48620414733887 15.25339317321777 21.47575187683105 15.26288890838623 21.45572090148926 15.28032112121582 L 21.46095275878906 15.29386520385742 L 21.33478164672852 15.38398551940918 C 21.23531150817871 15.45504570007324 21.1318416595459 15.51506519317627 21.05204200744629 15.55984592437744 C 20.99967193603516 15.58893585205078 20.94694137573242 15.61477565765381 20.89594268798828 15.63976573944092 L 20.87733268737793 15.64889526367188 L 20.86931228637695 15.65281581878662 L 20.8653621673584 15.65454578399658 L 20.84146118164063 15.66818523406982 L 20.82298851013184 15.67280864715576 C 20.81793403625488 15.67477512359619 20.81262969970703 15.67677116394043 20.80705642700195 15.67870712280273 C 20.57714080810547 15.76949691772461 20.32302665710449 15.83984375 20.01091194152832 15.89937591552734 C 19.96905899047852 15.90803241729736 19.92749214172363 15.9148588180542 19.88678932189941 15.92113780975342 L 19.87351226806641 15.93398571014404 L 19.80339431762695 15.93398571014404 C 19.79599571228027 15.93487071990967 19.78884887695313 15.93562316894531 19.78098106384277 15.93636322021484 C 19.65645027160645 15.95153903961182 19.53329277038574 15.9601936340332 19.44004249572754 15.96602535247803 C 19.25505256652832 15.97791576385498 19.07150268554688 15.97891521453857 18.91398239135742 15.97891521453857 L 10.89996147155762 15.97891521453857 L 10.63851165771484 15.97891521453857 L 10.70693206787109 15.72657585144043 C 10.81149196624756 15.34091567993164 10.86694145202637 14.93930530548096 10.87171173095703 14.53739547729492 C 10.85617160797119 13.07200527191162 10.18838214874268 11.66228580474854 9.085162162780762 10.76619529724121 C 8.646871566772461 10.40914535522461 8.154571533203125 10.13395595550537 7.621922016143799 9.948265075683594 L 7.443212032318115 9.885965347290039 L 7.495562076568604 9.704085350036621 C 7.509791851043701 9.654665946960449 7.516711711883545 9.603185653686523 7.516711711883545 9.546725273132324 L 7.516711711883545 9.04947566986084 L 7.516711711883545 8.849475860595703 M 15.70647144317627 7.780653953552246 L 15.68492221832275 7.780595302581787 L 15.68281841278076 7.764695644378662 L 5.228016376495361 7.764695644378662 L 5.232991695404053 7.769685745239258 L 4.756649494171143 7.769685745239258 L 4.756281852722168 7.771785736083984 C 4.750049114227295 7.770815849304199 4.745121002197266 7.770179271697998 4.740768432617188 7.769685745239258 L 4.626542091369629 7.769685745239258 L 4.621914863586426 7.76043176651001 L 4.592991828918457 7.759695529937744 L 4.591746807098389 7.754714012145996 L 4.551151752471924 7.750645637512207 L 4.551151752471924 7.592319011688232 L 4.54915189743042 7.584315299987793 L 4.54915189743042 7.559695720672607 L 4.54915189743042 5.927135467529297 C 4.54915189743042 5.926694869995117 4.549151420593262 5.926266193389893 4.549150466918945 5.92584753036499 L 4.538981914520264 5.885265350341797 L 4.54915189743042 5.854739189147949 L 4.54915189743042 5.759595394134521 L 4.659711837768555 5.704315662384033 C 4.662191390991211 5.703075885772705 4.664692878723145 5.701887130737305 4.667218208312988 5.700746059417725 L 4.666811943054199 5.698185443878174 L 4.672811985015869 5.696605682373047 C 4.677783012390137 5.695259571075439 4.682560920715332 5.694021224975586 4.687165260314941 5.692910671234131 C 4.706264495849609 5.686487197875977 4.726234436035156 5.682751178741455 4.746264457702637 5.681895732879639 C 4.84791374206543 5.676546573638916 4.959141731262207 5.673945426940918 5.086202144622803 5.673945426940918 C 5.198311805725098 5.673945426940918 5.310661792755127 5.675905704498291 5.42277193069458 5.677865505218506 C 5.532102108001709 5.67978572845459 5.641211986541748 5.681705474853516 5.749651908874512 5.681705474853516 L 15.87252235412598 5.681705474853516 C 15.8987922668457 5.681705474853516 15.92008209228516 5.684815406799316 15.93331146240234 5.686755657196045 L 15.93682670593262 5.687195301055908 L 16.0521411895752 5.687195301055908 L 16.10128211975098 5.815805435180664 C 16.11925888061523 5.862842082977295 16.14816284179688 5.938488006591797 16.10847282409668 6.018394947052002 L 16.10847282409668 7.564695358276367 L 16.0885009765625 7.564695358276367 L 16.0885009765625 7.567685604095459 L 16.0885009765625 7.573175430297852 L 16.0885009765625 7.713095664978027 L 16.04686164855957 7.728289127349854 L 16.03475189208984 7.764695644378662 L 16.00503349304199 7.764695644378662 L 16.00247192382813 7.767685413360596 L 15.99031162261963 7.767685413360596 L 15.70647144317627 8.051525115966797 L 15.70647144317627 7.780653953552246 M 28.89507293701172 16.90193557739258 C 28.89639854431152 16.90193557739258 28.89772605895996 16.90193557739258 28.89905166625977 16.90193557739258 C 30.08730125427246 16.90193557739258 31.12163162231445 15.88447570800781 31.20502281188965 14.630295753479 C 31.20801162719727 14.59481525421143 31.21030235290527 14.56528568267822 31.21030235290527 14.53527545928955 L 31.21030235290527 14.53263568878174 L 31.21037101745605 14.53000545501709 C 31.21089172363281 14.510085105896 31.20895195007324 14.48807525634766 31.20670127868652 14.46260547637939 L 31.2047119140625 14.43913555145264 C 31.12427139282227 13.17512512207031 30.10745239257813 12.19984531402588 28.83939170837402 12.17054557800293 C 28.82201194763184 12.17013549804688 28.80485153198242 12.16993522644043 28.78757286071777 12.16993522644043 C 28.1808910369873 12.16993522644043 27.60562133789063 12.42350578308105 27.1677417755127 12.88393592834473 C 26.74370193481445 13.32981586456299 26.49263191223145 13.9333553314209 26.47892189025879 14.53991508483887 C 26.44990158081055 15.78936576843262 27.53517150878906 16.87083625793457 28.84940147399902 16.9015064239502 C 28.86516189575195 16.90191841125488 28.8801441192627 16.90193557739258 28.89507293701172 16.90193557739258 M 28.84174156188965 13.25638580322266 L 28.84413146972656 13.25638580322266 L 28.86910247802734 13.25638580322266 C 29.54495239257813 13.25638580322266 30.10765266418457 13.82852554321289 30.12347221374512 14.53177547454834 L 30.12357139587402 14.53633594512939 L 30.12347221374512 14.54088592529297 C 30.10708236694336 15.25180530548096 29.55907249450684 15.80024528503418 28.84833145141602 15.81661510467529 C 28.83930206298828 15.81680583953857 28.83041191101074 15.81689548492432 28.8214225769043 15.81689548492432 C 28.13387107849121 15.81683540344238 27.5818920135498 15.25641536712646 27.5648021697998 14.54088592529297 C 27.54888153076172 13.84981536865234 28.12064170837402 13.27361583709717 28.83935165405273 13.25644588470459 L 28.84174156188965 13.25638580322266 M 6.112175464630127 16.842529296875 C 6.11482048034668 16.842529296875 6.117462635040283 16.84252548217773 6.120101928710938 16.84252548217773 C 7.309241771697998 16.84252548217773 8.343571662902832 15.82490539550781 8.42579174041748 14.57407569885254 L 8.426092147827148 14.56959533691406 L 8.426582336425781 14.56513595581055 C 8.429831504821777 14.53581523895264 8.431351661682129 14.50744533538818 8.431351661682129 14.47586536407471 C 8.431351661682129 14.44557571411133 8.429851531982422 14.41809558868408 8.42661190032959 14.38939571380615 L 8.426061630249023 14.38449573516846 L 8.425751686096191 14.37957572937012 C 8.346291542053223 13.1156759262085 7.329482078552246 12.14045524597168 6.060581684112549 12.11114597320557 C 6.043431758880615 12.11074542999268 6.026521682739258 12.11054515838623 6.009461879730225 12.11054515838623 C 5.402882099151611 12.11054515838623 4.827531814575195 12.36409568786621 4.389371871948242 12.82449531555176 C 3.964951992034912 13.2704553604126 3.713681936264038 13.87400531768799 3.699971914291382 14.48050594329834 C 3.685621976852417 15.09813594818115 3.93287181854248 15.68586540222168 4.396172046661377 16.13545608520508 C 4.844272136688232 16.57028579711914 5.454251766204834 16.82766532897949 6.0697021484375 16.84157562255859 L 6.072711944580078 16.84164619445801 L 6.075711727142334 16.84180641174316 C 6.088255405426025 16.84246826171875 6.100267887115479 16.842529296875 6.112175464630127 16.842529296875 M 6.089151859283447 13.1959753036499 C 6.766101837158203 13.1959753036499 7.329701900482178 13.76811599731445 7.345521926879883 14.4713659286499 L 7.345622062683105 14.47591590881348 L 7.345521926879883 14.48046588897705 C 7.329182147979736 15.19049549102783 6.780881881713867 15.73914527893066 6.069381713867188 15.75670528411865 C 6.060361862182617 15.75689506530762 6.051491737365723 15.75698566436768 6.042501926422119 15.75698566436768 C 5.366382122039795 15.75692558288574 4.802651882171631 15.18436527252197 4.785851955413818 14.48047542572021 C 4.777912139892578 14.13598537445068 4.91137170791626 13.8126859664917 5.161642074584961 13.57013511657715 C 5.402162075042725 13.33702564239502 5.72141170501709 13.204345703125 6.065171718597412 13.19647598266602 L 6.070911884307861 13.19632530212402 C 6.076992034912109 13.19613552093506 6.083071708679199 13.1959753036499 6.089151859283447 13.1959753036499 M 28.89306259155273 19.5278148651123 C 27.05181121826172 19.5278148651123 25.25350189208984 18.5502758026123 24.40377235412598 16.84881591796875 C 23.7008228302002 15.43892574310303 23.65289115905762 13.80137538909912 24.33288192749023 12.37100505828857 C 24.95794105529785 11.05447578430176 26.20708274841309 10.01003551483154 27.63394165039063 9.677535057067871 C 28.02965545654297 9.585101127624512 28.42880821228027 9.539462089538574 28.82417297363281 9.539462089538574 C 29.96416282653809 9.539462089538574 31.0740852355957 9.918563842773438 31.99043273925781 10.64808559417725 C 33.16867065429688 11.5866756439209 33.83567047119141 13.03850555419922 33.84965133666992 14.53627586364746 C 33.82769012451172 16.78191566467285 32.2760009765625 18.87728500366211 30.0543327331543 19.39500617980957 C 29.66990280151367 19.4848747253418 29.28048133850098 19.5278148651123 28.89306259155273 19.5278148651123 Z M 28.82316207885742 11.01703548431396 C 28.21408271789551 11.01703548431396 27.60598182678223 11.17329597473145 27.06679153442383 11.49531555175781 C 26.00438117980957 12.13186550140381 25.31142234802246 13.28514575958252 25.32439231872559 14.53527545928955 C 25.33638191223145 15.77541542053223 25.98141098022461 16.95415496826172 27.06679153442383 17.57572555541992 C 27.61736679077148 17.89160346984863 28.24090385437012 18.05447196960449 28.86318588256836 18.05449867248535 C 29.4732837677002 18.05452346801758 30.08216857910156 17.89802169799805 30.62048149108887 17.57572555541992 C 31.69987106323242 16.92969512939453 32.35289001464844 15.79439544677734 32.36387252807617 14.53527545928955 C 32.35289001464844 13.2966251373291 31.70685195922852 12.11788558959961 30.62048149108887 11.49531555175781 C 30.0703010559082 11.18028545379639 29.44623184204102 11.01703548431396 28.82316207885742 11.01703548431396 Z M 6.126091957092285 19.46790504455566 C 4.281851768493652 19.46790504455566 2.478541851043701 18.50034523010254 1.624821901321411 16.7899055480957 C 0.9228718876838684 15.38001537322998 0.874941885471344 13.74245548248291 1.553931951522827 12.31159591674805 C 1.672751903533936 12.06147575378418 1.814541935920715 11.82132530212402 1.975301861763 11.59367561340332 L 0.7181718945503235 11.59367561340332 C -0.2393880933523178 11.59367561340332 -0.2393880933523178 10.10789585113525 0.7181718945503235 10.10789585113525 L 3.343251943588257 10.10789585113525 C 3.423131942749023 10.10789585113525 3.49602198600769 10.11937522888184 3.56292200088501 10.13784599304199 C 3.96632194519043 9.902195930480957 4.401671886444092 9.724465370178223 4.854991912841797 9.619125366210938 C 5.247350215911865 9.527234077453613 5.642645359039307 9.482538223266602 6.034584522247314 9.482538223266602 C 6.100475788116455 9.482538223266602 6.166259288787842 9.483800888061523 6.231931686401367 9.486315727233887 L 6.231931686401367 9.051475524902344 L 4.756142139434814 9.051475524902344 C 3.977301836013794 9.051475524902344 3.399171829223633 8.473835945129395 3.283341884613037 7.744425296783447 C 3.271361827850342 7.689505577087402 3.26337194442749 7.629595756530762 3.26337194442749 7.565695762634277 L 3.26337194442749 6.338025569915771 C 3.26337194442749 5.679515361785889 3.32328200340271 5.043465614318848 3.936362028121948 4.642065525054932 C 4.267738342285156 4.424094676971436 4.662923812866211 4.389211654663086 5.056426048278809 4.389211654663086 C 5.241557598114014 4.389211654663086 5.426247119903564 4.396925449371338 5.603871822357178 4.396925449371338 L 15.64287185668945 4.396925449371338 C 15.70144176483154 4.396925449371338 15.76091575622559 4.394929885864258 15.82008361816406 4.394929885864258 C 15.8496732711792 4.394929885864258 15.87917804718018 4.395428657531738 15.90847206115723 4.396925449371338 C 16.74921226501465 4.442855358123779 17.39425277709961 5.071415424346924 17.39425277709961 5.927635669708252 L 17.39425277709961 5.981555461883545 L 20.1002025604248 5.981555461883545 C 20.1523494720459 5.981555461883545 20.20438766479492 5.981735706329346 20.25633811950684 5.981735706329346 C 20.41627311706543 5.981735706329346 20.57547187805176 5.980027198791504 20.73525238037109 5.966085433959961 C 20.79217147827148 5.961585521697998 20.84909248352051 5.95559549331665 20.90800285339355 5.949105739593506 C 20.91299247741699 5.947115421295166 21.04479217529297 5.925145626068115 21.05178260803223 5.92464542388916 C 21.30840110778809 5.873225688934326 21.56202125549316 5.803325653076172 21.8066520690918 5.70796537399292 C 21.8336124420166 5.69648551940918 21.95743179321289 5.642565727233887 21.97440147399902 5.633575439453125 C 22.03331184387207 5.604125499725342 22.09023284912109 5.575665473937988 22.14714241027832 5.543715476989746 C 22.25898170471191 5.481805324554443 22.36881256103516 5.417905330657959 22.47565269470215 5.345505714416504 C 22.52757263183594 5.311065673828125 22.57950210571289 5.276115417480469 22.63042259216309 5.239165306091309 C 22.65039253234863 5.225685596466064 22.66237258911133 5.215705394744873 22.67036247253418 5.209215641021729 C 22.67236137390137 5.207215309143066 22.67436218261719 5.20671558380127 22.67835235595703 5.203225612640381 C 22.77421188354492 5.126335620880127 22.8660717010498 5.047455310821533 22.9559326171875 4.962085723876953 C 23.02383232116699 4.896685600280762 23.09173202514648 4.829785346984863 23.15763282775879 4.761885643005371 C 23.05678176879883 4.677005290985107 22.97590255737305 4.561685562133789 22.92798233032227 4.406415462493896 C 22.61944198608398 3.413895606994629 22.3788013458252 2.710445642471313 21.80965232849121 1.846245527267456 C 21.77969169616699 1.80180549621582 21.74974250793457 1.758375525474548 21.71978187561035 1.713435530662537 C 21.69782257080078 1.688475489616394 21.6458911895752 1.62207555770874 21.62992095947266 1.605605483055115 C 21.59197235107422 1.564165472984314 21.55303192138672 1.522725582122803 21.51010131835938 1.484785556793213 L 19.97240257263184 1.484785556793213 C 19.01383209228516 1.484785556793213 19.01383209228516 -4.47479260401451e-06 19.97240257263184 -4.47479260401451e-06 L 21.48014259338379 -4.47479260401451e-06 C 22.1611213684082 -4.47479260401451e-06 22.62243270874023 0.4238655269145966 22.99587249755859 0.9535755515098572 C 23.49413108825684 1.665015578269958 23.85259246826172 2.503255605697632 24.14017105102539 3.339005470275879 C 24.21805191040039 3.187235593795776 24.29194259643555 3.03246545791626 24.35984230041504 2.875205516815186 C 24.37881278991699 2.827775478363037 24.42773246765137 2.708455562591553 24.44072151184082 2.674005508422852 C 24.46767234802246 2.602115631103516 24.49364280700684 2.530215501785278 24.51960182189941 2.457825422286987 C 24.56154251098633 2.338005542755127 24.6004810333252 2.217685461044312 24.63742256164551 2.095865488052368 C 24.66937255859375 1.983535528182983 24.70232200622559 1.870205521583557 24.72629165649414 1.755875468254089 C 24.7948169708252 1.438588500022888 25.12312316894531 1.210175275802612 25.43710517883301 1.210175275802612 C 25.43881988525391 1.210175275802612 25.44050788879395 1.210181951522827 25.44222259521484 1.210195541381836 C 27.35736274719238 1.222675561904907 29.25252151489258 1.959075570106506 30.61449241638184 3.32053542137146 C 31.94350242614746 4.649055480957031 32.70336151123047 6.437875747680664 32.71535110473633 8.318565368652344 C 32.71934127807617 8.723455429077148 32.37585067749023 9.061455726623535 31.97246170043945 9.061455726623535 L 29.17963218688965 9.061455726623535 C 28.87289619445801 9.061455726623535 28.53255462646484 9.049152374267578 28.20298004150391 9.049152374267578 C 27.86202812194824 9.049152374267578 27.53259658813477 9.062312126159668 27.26350212097168 9.115875244140625 C 26.72231101989746 9.222715377807617 26.27298164367676 9.380975723266602 25.81965255737305 9.641585350036621 C 24.85110282897949 10.19925594329834 24.07626152038574 11.01403522491455 23.62094116210938 12.05897521972656 C 23.3393611907959 12.70051574707031 23.27146148681641 14.30461597442627 23.23552131652832 14.3914852142334 C 23.15863227844238 14.95714569091797 22.98290252685547 15.49084568023682 22.57351112365723 15.97412586212158 C 21.84360122680664 16.83283615112305 20.6733512878418 17.15435600280762 19.59097099304199 17.24172592163086 C 19.27611923217773 17.26718521118164 18.95818328857422 17.27396011352539 18.63997268676758 17.27396011352539 C 18.27800750732422 17.27396011352539 17.91568183898926 17.26519584655762 17.5570011138916 17.26519584655762 L 10.23096179962158 17.26519584655762 C 9.555961608886719 18.28566551208496 8.521512031555176 19.05751609802246 7.27537202835083 19.34009552001953 C 6.895941734313965 19.42596626281738 6.51052188873291 19.46790504455566 6.126091957092285 19.46790504455566 Z M 6.034232139587402 10.95861530303955 C 5.430131912231445 10.95861530303955 4.825041770935059 11.11538505554199 4.287841796875 11.43690586090088 C 3.2254319190979 12.07295513153076 2.532461881637573 13.22573566436768 2.544451951980591 14.47586536407471 C 2.557431936264038 15.71550559997559 3.203461885452271 16.89474487304688 4.287841796875 17.51631546020508 C 4.840314865112305 17.83266639709473 5.46975564956665 17.99510955810547 6.097602367401123 17.99511337280273 C 6.704349994659424 17.99511528015137 7.309607982635498 17.84341049194336 7.842531681060791 17.53229522705078 C 8.925911903381348 16.89824485778809 9.573942184448242 15.78939533233643 9.585922241210938 14.53627586364746 C 9.573942184448242 13.29512596130371 8.924911499023438 12.08793544769287 7.842531681060791 11.45238590240479 C 7.285361766815186 11.12536525726318 6.659291744232178 10.95861530303955 6.034232139587402 10.95861530303955 Z M 7.71671199798584 9.04947566986084 L 7.71671199798584 9.546725273132324 C 7.71671199798584 9.623615264892578 7.706731796264648 9.693515777587891 7.687761783599854 9.759415626525879 C 8.231942176818848 9.949125289916992 8.748171806335449 10.23370552062988 9.211482048034668 10.61113548278809 C 10.38672161102295 11.56571578979492 11.0557222366333 13.02852535247803 11.071702003479 14.53527545928955 C 11.06671237945557 14.95963573455811 11.00879192352295 15.37751579284668 10.89996147155762 15.77891540527344 L 18.91398239135742 15.77891540527344 C 19.08572196960449 15.77891540527344 19.25646209716797 15.77741527557373 19.42721176147461 15.76643562316895 C 19.53904151916504 15.75944519042969 19.64988136291504 15.75095558166504 19.75971221923828 15.73747539520264 C 19.77070236206055 15.73647594451904 19.77968215942383 15.73547554016113 19.79067230224609 15.73398590087891 C 19.79067230224609 15.73398590087891 19.79266166687012 15.73398590087891 19.79366111755371 15.732985496521 C 19.85257148742676 15.72399520874023 19.9124813079834 15.71550559997559 19.97040176391602 15.70352554321289 C 20.23201179504395 15.65360546112061 20.49162101745605 15.58869552612305 20.73825263977051 15.49084568023682 C 20.74923133850098 15.48735523223877 20.75822257995605 15.48285579681396 20.76621246337891 15.48085594177246 C 20.77320098876953 15.47686576843262 20.78119277954102 15.47287559509277 20.78917121887207 15.46937561035156 C 20.8450927734375 15.44191551208496 20.9010124206543 15.41495513916016 20.95493125915527 15.38500595092773 C 21.04479217529297 15.33457565307617 21.13466262817383 15.28115558624268 21.21853256225586 15.22124576568604 C 21.2165412902832 15.22124576568604 21.33536148071289 15.12139511108398 21.35233116149902 15.10442543029785 C 21.39726257324219 15.06098556518555 21.44120216369629 15.01655578613281 21.48214149475098 14.96962547302246 C 21.49312210083008 14.95714569091797 21.50011253356934 14.948655128479 21.50610160827637 14.94066524505615 C 21.51010131835938 14.9346752166748 21.51409149169922 14.92868518829346 21.52008247375488 14.91969585418701 C 21.55603218078613 14.8657751083374 21.59197235107422 14.81185531616211 21.6219310760498 14.75494575500488 C 21.62829399108887 14.74262142181396 21.67515754699707 14.63567543029785 21.67888069152832 14.63567543029785 C 21.67983436584473 14.63567543029785 21.67795944213867 14.64268207550049 21.67185211181641 14.66008567810059 C 21.69182205200195 14.60466575622559 21.71379280090332 14.54925537109375 21.72977256774902 14.49133586883545 C 21.74874114990234 14.42144584655762 21.7677116394043 14.35054588317871 21.78069114685059 14.27865505218506 C 21.78668212890625 14.24770545959473 21.79168128967285 14.22723579406738 21.79367256164551 14.21475505828857 C 21.7946720123291 14.20177555084229 21.7956714630127 14.18679523468018 21.7956714630127 14.16682529449463 C 21.80066108703613 14.09243583679199 21.81464195251465 13.95713520050049 21.81664276123047 13.88125514984131 C 21.81664276123047 13.88125514984131 21.8775520324707 12.89472579956055 21.89951133728027 12.77889537811279 C 22.00036239624023 12.25867557525635 22.11519241333008 11.79137516021729 22.33686256408691 11.30709552764893 C 22.87406158447266 10.13185596466064 23.80666160583496 9.10938549041748 24.91800117492676 8.447375297546387 C 25.49015235900879 8.10688591003418 26.1281909942627 7.828795433044434 26.78421211242676 7.699495315551758 C 27.35614776611328 7.586058139801025 27.92689514160156 7.574395179748535 28.50381469726563 7.574395179748535 C 28.65309715270996 7.574395179748535 28.80272102355957 7.575175762176514 28.95297241210938 7.575175762176514 L 31.17365264892578 7.575175762176514 C 31.00390243530273 6.342515468597412 30.43076133728027 5.193235397338867 29.50614166259766 4.313555717468262 C 28.54758262634277 3.401915550231934 27.3094310760498 2.851735591888428 25.99539184570313 2.723925590515137 C 25.9654426574707 2.814295530319214 25.93448257446289 2.9056556224823 25.90153121948242 2.994025468826294 C 25.18460273742676 4.921645641326904 23.81765174865723 6.771875381469727 21.72378158569336 7.293595314025879 C 21.0757942199707 7.454733848571777 20.42334365844727 7.466145038604736 19.76400566101074 7.466145992279053 C 19.65524101257324 7.466145992279053 19.54634475708008 7.465835571289063 19.43719100952148 7.465835571289063 L 17.38726234436035 7.465835571289063 C 17.35630226135254 7.99504566192627 17.21452140808105 8.481325149536133 16.72225189208984 8.805835723876953 C 16.39033699035645 9.023634910583496 16.0111141204834 9.054015159606934 15.62926006317139 9.054018974304199 C 15.48154735565186 9.054019927978516 15.33349132537842 9.04947566986084 15.18755149841309 9.04947566986084 L 7.71671199798584 9.04947566986084 Z M 15.88850212097168 7.567685604095459 C 15.87112140655518 7.572365283966064 15.85553073883057 7.581074714660645 15.86150550842285 7.581074714660645 C 15.8644552230835 7.581075191497803 15.87266063690186 7.578952789306641 15.88850212097168 7.573175430297852 C 15.88850212097168 7.573175430297852 15.88850212097168 7.570685386657715 15.88850212097168 7.567685604095459 Z M 4.751152038574219 7.567685604095459 C 4.751152038574219 7.568685531616211 4.751152038574219 7.569685459136963 4.751152038574219 7.569685459136963 C 4.761131763458252 7.570685386657715 4.771121978759766 7.571685314178467 4.787091732025146 7.574175357818604 C 4.769122123718262 7.570685386657715 4.758141994476318 7.569685459136963 4.751152038574219 7.567685604095459 Z M 4.749151706695557 7.567685604095459 L 4.750152111053467 7.569685459136963 L 4.751152038574219 7.569685459136963 L 4.749151706695557 7.567685604095459 Z M 15.90702247619629 7.568136692047119 C 15.90668964385986 7.568274021148682 15.90647220611572 7.56845235824585 15.90647220611572 7.568685531616211 C 15.90665054321289 7.568507194519043 15.90683460235596 7.568323612213135 15.90702247619629 7.568136692047119 C 15.90811920166016 7.567685604095459 15.91047191619873 7.567685604095459 15.91047191619873 7.567685604095459 C 15.91622543334961 7.560971260070801 15.9219799041748 7.553343296051025 15.92950630187988 7.544341087341309 C 15.92981719970703 7.543972969055176 15.9301290512085 7.543600559234619 15.93044185638428 7.543225288391113 C 15.93012714385986 7.543599605560303 15.9298152923584 7.543971538543701 15.92950630187988 7.544341087341309 C 15.92024707794189 7.555314540863037 15.91194152832031 7.563248157501221 15.90702247619629 7.568136692047119 Z M 15.90248203277588 7.545725345611572 C 15.90647220611572 7.545725345611572 15.90847206115723 7.550715446472168 15.90847206115723 7.564695358276367 L 15.90847206115723 5.885205745697021 C 15.90973377227783 5.898438453674316 15.92530822753906 5.931158542633057 15.92809772491455 5.931158542633057 C 15.92972850799561 5.931158542633057 15.92698764801025 5.919984817504883 15.91446208953857 5.887195587158203 C 15.91246223449707 5.887195587158203 15.90847206115723 5.885205745697021 15.90847206115723 5.885205745697021 C 15.90048217773438 5.884205341339111 15.88750171661377 5.881705760955811 15.87252235412598 5.881705760955811 L 5.749651908874512 5.881705760955811 C 5.529998779296875 5.881705760955811 5.307638645172119 5.873940944671631 5.086204528808594 5.873940944671631 C 4.975467205047607 5.873940944671631 4.864992141723633 5.875881671905518 4.755141735076904 5.881705760955811 C 4.7531418800354 5.881705760955811 4.751152038574219 5.882205486297607 4.749151706695557 5.883205413818359 C 4.749151706695557 5.887195587158203 4.747151851654053 5.893195629119873 4.747151851654053 5.893195629119873 C 4.748151779174805 5.897185325622559 4.749151706695557 5.90716552734375 4.749151706695557 5.927135467529297 L 4.749151706695557 7.559695720672607 L 4.750152111053467 7.563695430755615 C 4.755141735076904 7.563695430755615 4.761131763458252 7.564695358276367 4.765131950378418 7.564695358276367 L 15.89050197601318 7.564695358276367 C 15.89349174499512 7.555705547332764 15.89948177337646 7.545725345611572 15.90248203277588 7.545725345611572 Z M 4.739161968231201 5.886205673217773 C 4.731182098388672 5.8876953125 4.72219181060791 5.890695571899414 4.711211681365967 5.893195629119873 C 4.72219181060791 5.892195701599121 4.731182098388672 5.890195369720459 4.739161968231201 5.886205673217773 Z M 21.56701278686523 1.484785556793213 C 21.60395622253418 1.491108417510986 21.62237548828125 1.493216395378113 21.62855339050293 1.493216633796692 C 21.64090919494629 1.49321711063385 21.60429382324219 1.484785556793213 21.56901168823242 1.484785556793213 L 21.56701278686523 1.484785556793213 Z M 28.89905166625977 17.10193634033203 C 28.88108253479004 17.10193634033203 28.86311149597168 17.10193634033203 28.84413146972656 17.1014347076416 C 27.47518157958984 17.06948471069336 26.24602127075195 15.95415592193604 26.27897262573242 14.53527545928955 C 26.30950736999512 13.18461418151855 27.39581298828125 11.96993827819824 28.78757476806641 11.96993827819824 C 28.80643081665039 11.96993827819824 28.82516670227051 11.97015857696533 28.84413146972656 11.97060585021973 C 30.22707176208496 12.00255584716797 31.31744194030762 13.06147575378418 31.40431213378906 14.42643547058105 C 31.40730285644531 14.4623851776123 31.41130256652832 14.49733543395996 31.41030120849609 14.53527545928955 C 31.41030120849609 14.57471561431885 31.40730285644531 14.61165523529053 31.40431213378906 14.64710521697998 C 31.31744194030762 15.95415592193604 30.25303268432617 17.10193634033203 28.89905166625977 17.10193634033203 Z M 28.84413146972656 13.45638561248779 C 28.25901222229004 13.47036552429199 27.75077247619629 13.92967510223389 27.76475143432617 14.53627586364746 C 27.77855682373047 15.11403846740723 28.22666168212891 15.61684322357178 28.82143974304199 15.61689853668213 C 28.82901382446289 15.61689949035645 28.83651161193848 15.61681842803955 28.84413146972656 15.61665534973145 C 29.45123100280762 15.60267543792725 29.90954208374023 15.14286518096924 29.92352104187012 14.53627586364746 C 29.91054153442383 13.95913505554199 29.46321105957031 13.45638561248779 28.86910247802734 13.45638561248779 C 28.86111259460449 13.45638561248779 28.85312271118164 13.45638561248779 28.84413146972656 13.45638561248779 Z M 6.120101928710938 17.04252624511719 C 6.102131843566895 17.04252624511719 6.084151744842529 17.04252624511719 6.065181732177734 17.04152488708496 C 4.696231842041016 17.01057624816895 3.467072010040283 15.89424514770508 3.500021934509277 14.47586536407471 C 3.530563831329346 13.1249532699585 4.618259906768799 11.91054725646973 6.009466648101807 11.91054725646973 C 6.028052806854248 11.91054725646973 6.046489238739014 11.9107608795166 6.065181732177734 11.91119575500488 C 7.448112010955811 11.94314575195313 8.539482116699219 13.00106525421143 8.625361442565918 14.36702537536621 C 8.629351615905762 14.40247535705566 8.631351470947266 14.43741512298584 8.631351470947266 14.47586536407471 C 8.631351470947266 14.515305519104 8.629351615905762 14.55124568939209 8.625361442565918 14.58719539642334 C 8.539482116699219 15.89374542236328 7.475081920623779 17.04252624511719 6.120101928710938 17.04252624511719 Z M 6.089151859283447 13.39597511291504 C 6.081161975860596 13.39597511291504 6.073172092437744 13.39647579193115 6.065181732177734 13.39647579193115 C 5.480062007904053 13.40995597839355 4.971821784973145 13.86926555633545 4.985801696777344 14.47586536407471 C 4.999606132507324 15.05412197113037 5.448686599731445 15.55693244934082 6.042526245117188 15.55698871612549 C 6.050087928771973 15.5569896697998 6.057573795318604 15.55690860748291 6.065181732177734 15.5567455291748 C 6.672271728515625 15.5417652130127 7.131591796875 15.08345508575439 7.145571708679199 14.47586536407471 C 7.132591724395752 13.89872550964355 6.684261798858643 13.39597511291504 6.089151859283447 13.39597511291504 Z" stroke="none" fill="rgba(0,0,0,0.17)"/>
  </g>
</svg>
